<svg display="none" xmlns="http://www.w3.org/2000/svg">
    <symbol id="search_icon" width="35" height="35" viewBox="217 2 40 35">
        <g>
            <path xmlns="http://www.w3.org/2000/svg" fill-rule="evenodd" clip-rule="evenodd" d="M249.584 15.2908C248.356 16.3556 246.753 17 245 17C241.134 17 238 13.866 238 10C238 6.13401 241.134 3 245 3C248.866 3 252 6.13401 252 10C252 11.7531 251.356 13.3556 250.291 14.5837L255.906 20.1992C256.101 20.3944 256.101 20.711 255.906 20.9063C255.711 21.1015 255.394 21.1015 255.199 20.9063L249.584 15.2908ZM251 10C251 13.3137 248.314 16 245 16C241.686 16 239 13.3137 239 10C239 6.68629 241.686 4 245 4C248.314 4 251 6.68629 251 10Z" fill="#252626"/>
        </g>
    </symbol>

    <symbol id="notify_icon" width="30" height="30" viewBox="200 0 30 14">
            <path xmlns="http://www.w3.org/2000/svg" fill-rule="evenodd" clip-rule="evenodd" d="M226 14C226 12.5 226 10.5 226 10.5C226 7.4 224.1 4.7 221 4C221 4 221 3 220 3C219 3 219 4 219 4C215.9 4.7 214 7.4 214 10.5C214 10.5 214 12.5 214 14C214 15.5 211.5 18 211.5 18V19H217C217.1 20.9 218.6 22 220 22C221.4 22 223 20.9 223 19H228.5V18C228.5 18 226 15.5 226 14ZM220 21C219 21 218 20.2 218 19H222C222 20.4 220.8 21 220 21ZM213 18C213 18 215 16 215 14.5C215 13 215 10.5 215 10.5C215 8 217 5 220 5C223 5 225 8 225 10.5C225 10.5 225 13 225 14.5C225 16 227 18 227 18H213Z" fill="#252626"/>
    </symbol>

    <symbol id="rate_star_icon" width="30" height="30" viewBox="85 185 35 7">
            <path xmlns="http://www.w3.org/2000/svg" fill-rule="evenodd" clip-rule="evenodd" d="M100.994 190.937L99.0877 186.451C98.6696 185.467 97.9172 185 97.0121 185C96.107 185 95.3471 185.484 94.9365 186.451L93.0305 190.937L88.6154 191.315C87.5386 191.408 86.3524 191.705 86.0926 192.825C85.8328 193.945 86.1176 194.646 86.9753 195.388L90.5699 198.496L89.6176 202.641C89.3731 203.705 89.212 204.964 90.1942 205.632C91.1764 206.3 92.4012 205.942 93.3719 205.357L97.0121 203.164L100.655 205.357C101.621 205.938 102.771 206.319 103.849 205.632C104.927 204.944 104.673 203.724 104.421 202.641L103.454 198.496L107.049 195.388C107.887 194.663 108.18 193.846 107.893 192.825C107.606 191.805 106.477 191.407 105.409 191.315L100.994 190.937ZM96.2219 186.927L94.0002 192.202L88.6932 192.66C88.2341 192.7 87.6307 192.768 87.5078 193.302C87.3849 193.836 87.6145 194.046 87.9448 194.334L92.133 197.987L90.9806 203.045C90.9754 203.068 90.9699 203.092 90.9642 203.117C90.8627 203.555 90.6951 204.278 91.1382 204.543C91.6131 204.828 92.0141 204.6 92.4052 204.362L97.0216 201.56L101.638 204.362C102.033 204.602 102.526 204.87 102.982 204.543C103.392 204.25 103.246 203.692 103.13 203.246C103.112 203.176 103.094 203.108 103.079 203.045L101.91 197.987L106.098 194.334C106.445 194.033 106.654 193.795 106.564 193.264C106.476 192.747 105.883 192.701 105.458 192.669C105.42 192.666 105.384 192.663 105.35 192.66L100.043 192.202L97.8212 186.927C97.6704 186.569 97.4996 186.174 97.0116 186.174C96.5385 186.174 96.3822 186.546 96.2357 186.895C96.2311 186.906 96.2265 186.917 96.2219 186.927Z" fill="#F5794D"/>
    </symbol>

    <symbol id="btn_plus_icon" width="25" height="25" viewBox="315 150 30 30">
        <path xmlns="http://www.w3.org/2000/svg" fill-rule="evenodd"  clip-rule="evenodd" d="M335 160C335 159.448 334.552 159 334 159C333.448 159 333 159.448 333 160L333 166L327 166C326.448 166 326 166.448 326 167C326 167.552 326.448 168 327 168L333 168L333 174C333 174.552 333.448 175 334 175C334.552 175 335 174.552 335 174L335 168H341C341.552 168 342 167.552 342 167C342 166.448 341.552 166 341 166L335 166L335 160Z" fill="#fff"/>
    </symbol>

</svg>
