<svg width="114" height="23" viewBox="0 0 114 23" fill="none" xmlns="http://www.w3.org/2000/svg">
<path fill-rule="evenodd" clip-rule="evenodd" d="M17.4888 19.2145C16.1559 20.0072 14.7279 20.8564 13.4703 21.6027C13.2626 21.726 12.7399 22 12.0017 22C11.2634 22 10.7682 21.7385 10.535 21.6027C7.53065 19.8529 3.61053 17.5092 2.27644 16.7002C0.94234 15.8912 0 15.2305 0 13.7043C0.00508578 12.7613 0.0103324 2.97175 0.0103324 1.63731C0.0103324 0.302879 1.23369 -0.500255 2.70232 0.359064C4.17094 1.21838 12.0006 5.88183 12.0006 5.88183C12.0006 5.88183 19.9939 1.12153 21.2992 0.359064C22.7992 -0.517122 23.9911 0.327915 23.9911 1.62667C23.9911 2.25354 23.9931 4.73938 23.9953 7.31265C23.9976 10.0707 24 12.9291 24 13.7069C24 15.2102 23.1081 15.8834 21.7233 16.7002C20.9265 17.1702 19.2949 18.1405 17.4888 19.2145ZM40.7761 16.1899H40.0374C36.9106 16.1899 36.1571 14.2923 36.1571 12.3411V2.48637C36.1571 2.07223 36.009 1.71726 35.7425 1.42146C35.4464 1.15523 35.091 1.00732 34.6764 1.00732C34.2619 1.00732 33.9065 1.15523 33.6104 1.42146C33.3439 1.71726 33.1958 2.07223 33.1958 2.48637V12.7848C33.1958 17.3774 35.9032 19.148 39.8307 19.148H40.2727C40.7761 19.148 41.2203 19.0297 41.5756 18.7634C41.9606 18.4972 42.1383 18.1126 42.1383 17.6689C42.1383 17.2548 42.0198 16.8998 41.7533 16.6336C41.5164 16.3378 41.161 16.1899 40.7761 16.1899ZM88.5672 16.1899H89.3059C89.6908 16.1899 90.0462 16.3378 90.2831 16.6336C90.5496 16.8998 90.668 17.2548 90.668 17.6689C90.668 18.1126 90.4904 18.4972 90.1054 18.7634C89.75 19.0297 89.3059 19.148 88.8024 19.148H88.3605C84.433 19.148 81.7256 17.3774 81.7256 12.7848V2.48637C81.7256 2.07223 81.8736 1.71726 82.1402 1.42146C82.4363 1.15523 82.7916 1.00732 83.2062 1.00732C83.6208 1.00732 83.9761 1.15523 84.2723 1.42146C84.5388 1.71726 84.6869 2.07223 84.6869 2.48637V12.3411C84.6869 14.2923 85.4403 16.1899 88.5672 16.1899ZM111.128 7.33762C111.986 7.87008 112.697 8.63918 113.2 9.58577C113.734 10.5324 113.97 11.5973 114 12.7805C114 13.9637 113.704 15.0582 113.141 16.0048C112.608 16.9514 111.868 17.7205 110.92 18.2825C110.002 18.8446 108.907 19.1108 107.722 19.1108C106.538 19.1108 105.472 18.815 104.524 18.2825C103.576 17.7205 102.806 16.9514 102.273 16.0048C101.74 15.0582 101.474 13.9637 101.444 12.7805V2.51595C101.444 2.07223 101.592 1.68768 101.859 1.42146C102.185 1.15523 102.54 1.00732 102.954 1.00732C103.369 1.00732 103.754 1.09607 104.021 1.39188C104.287 1.68768 104.435 2.04265 104.435 2.48637V7.81092C104.79 7.51511 105.205 7.24888 105.62 7.04181C106.36 6.68684 107.219 6.47978 108.107 6.47978C109.232 6.47978 110.239 6.77559 111.128 7.33762ZM109.41 15.8865C109.913 15.5907 110.298 15.147 110.595 14.6145C110.92 14.0821 111.068 13.4609 111.039 12.7805C111.039 12.1001 110.891 11.4789 110.595 10.9465C110.298 10.414 109.913 9.9999 109.41 9.70409C108.907 9.3787 108.344 9.23079 107.693 9.23079C107.041 9.23079 106.508 9.3787 105.975 9.70409C105.472 9.9999 105.087 10.414 104.79 10.9465C104.494 11.4789 104.346 12.1001 104.346 12.7805C104.346 13.4609 104.494 14.0821 104.79 14.6145C105.087 15.147 105.472 15.5611 105.975 15.8865C106.478 16.1823 107.071 16.3302 107.693 16.3302C108.344 16.3302 108.907 16.1823 109.41 15.8865ZM94.574 6.98274C94.8998 6.71651 95.2551 6.5686 95.6697 6.5686C96.1139 6.5686 96.4692 6.71651 96.7654 6.98274C97.0319 7.27854 97.1799 7.63351 97.1799 8.07723V17.6394C97.1799 18.0536 97.0319 18.4085 96.7654 18.7043C96.4692 19.0002 96.1139 19.1481 95.6697 19.1481C95.2551 19.1481 94.8998 19.0002 94.6036 18.7339C94.3075 18.4085 94.1595 18.0536 94.1595 17.6394V8.07723C94.1595 7.63351 94.3075 7.24896 94.574 6.98274ZM95.6698 1.27368C95.1663 1.27368 94.7518 1.45117 94.3668 1.83572C94.0114 2.19069 93.8338 2.60482 93.8338 3.10769C93.8338 3.61057 94.0114 4.0247 94.3668 4.40925C94.7221 4.76422 95.1663 4.94171 95.6401 4.94171C96.1436 4.94171 96.5581 4.76422 96.9135 4.40925C97.2688 4.05428 97.4761 3.61057 97.4761 3.10769C97.4761 2.60482 97.2984 2.19069 96.9431 1.83572C96.6174 1.48075 96.1732 1.27368 95.6698 1.27368ZM75.2687 7.27866C74.41 6.74621 73.3735 6.47998 72.189 6.47998C71.0045 6.47998 69.9385 6.74621 68.9909 7.30824C68.0729 7.8407 67.3326 8.58022 66.7995 9.55639C66.2961 10.503 66.0296 11.5975 66.0296 12.8103C66.0296 14.0231 66.2961 15.1176 66.8588 16.0938C67.4214 17.0403 68.1913 17.7799 69.1685 18.3419C70.1458 18.8743 71.271 19.1406 72.5148 19.1406C73.1959 19.1406 73.9362 19.0223 74.6765 18.756C75.4464 18.4898 76.0979 18.1644 76.6013 17.7503C77.0455 17.4249 77.1343 17.0108 77.1047 16.7445C77.0751 16.3896 76.8974 16.0346 76.5717 15.7388C76.3348 15.5317 76.0387 15.4134 75.7129 15.4134H75.6537C75.328 15.4134 75.0022 15.5317 74.7357 15.7388C74.4988 15.9163 74.1435 16.0938 73.7289 16.2417C73.3143 16.3896 72.9294 16.4487 72.5148 16.4487C71.5376 16.4487 70.7084 16.1825 70.0569 15.6205C69.5239 15.1767 69.1685 14.6147 68.9613 13.9639H76.5125C76.8974 13.9639 77.2232 13.8456 77.5193 13.5794C77.7858 13.3132 77.9043 12.9878 77.9043 12.6032C77.9043 11.42 77.6674 10.3551 77.2232 9.46764C76.8086 8.55064 76.1275 7.81112 75.2687 7.27866ZM68.9909 11.42C69.1685 10.8284 69.4943 10.3255 69.9385 9.91136C70.5011 9.40848 71.2414 9.14225 72.189 9.14225C73.0478 9.14225 73.6993 9.3789 74.1731 9.91136C74.5877 10.3255 74.8542 10.8284 75.0022 11.42H68.9909ZM62.3387 6.5481C62.5448 6.5481 62.7804 6.60835 62.9865 6.69872C63.3399 6.87947 63.5754 7.1506 63.7227 7.45186C63.8405 7.78324 63.811 8.17486 63.6638 8.50624L59.1879 18.1765C58.8346 18.9597 58.2456 19.1405 57.8334 19.1405C57.4211 19.1405 56.8322 18.9899 56.4494 18.2066L51.9736 8.53637C51.7969 8.17487 51.7969 7.81336 51.9147 7.48198C52.0619 7.1506 52.3269 6.87947 52.6803 6.69872C52.8864 6.60835 53.0925 6.5481 53.2986 6.5481C53.4164 6.5481 53.5637 6.57822 53.7109 6.63847C54.0643 6.75897 54.3293 6.99998 54.506 7.33136L57.8039 14.6217L61.0725 7.33136C61.2786 6.96985 61.5436 6.72885 61.897 6.60835C62.0442 6.57822 62.1915 6.5481 62.3387 6.5481ZM47.2026 6.5686C46.788 6.5686 46.4327 6.71651 46.107 6.98274C45.8404 7.24896 45.6924 7.63351 45.6924 8.07723V17.6394C45.6924 18.0536 45.8404 18.4085 46.1366 18.7339C46.4327 19.0002 46.788 19.1481 47.2026 19.1481C47.6468 19.1481 48.0022 19.0002 48.2983 18.7043C48.5648 18.4085 48.7129 18.0536 48.7129 17.6394V8.07723C48.7129 7.63351 48.5648 7.27854 48.2983 6.98274C48.0022 6.71651 47.6468 6.5686 47.2026 6.5686ZM45.8996 1.83572C46.2846 1.45117 46.6992 1.27368 47.2026 1.27368C47.706 1.27368 48.1502 1.48075 48.4759 1.83572C48.8313 2.19069 49.009 2.60482 49.009 3.10769C49.009 3.61057 48.8017 4.05428 48.4463 4.40925C48.091 4.76422 47.6764 4.94171 47.173 4.94171C46.6992 4.94171 46.255 4.76422 45.8996 4.40925C45.5443 4.0247 45.3666 3.61057 45.3666 3.10769C45.3666 2.60482 45.5443 2.19069 45.8996 1.83572Z" fill="url(#paint0_linear)"/>
<defs>
<linearGradient id="paint0_linear" x1="24" y1="8.93688" x2="1.69513e-06" y2="8.93843" gradientUnits="userSpaceOnUse">
<stop stop-color="#3E99ED"/>
<stop offset="1" stop-color="#72CFFF"/>
</linearGradient>
</defs>
</svg>
